# Blender v2.79 (sub 0) OBJ File: ''
# www.blender.org
mtllib ClassicSonicBall.mtl
o Sonic_Ball_0
v 0.341596 0.118575 0.018781
v 0.341596 0.084890 0.084890
v 0.354681 0.000006 0.000006
v 0.302125 0.187049 0.135898
v 0.302125 0.219894 0.071445
v 0.302125 0.231214 0.000006
v 0.302125 0.135898 0.187049
v 0.302125 0.071445 0.219894
v 0.341596 0.018781 0.118575
v 0.354681 0.000006 0.000006
v 0.302125 -0.000006 0.231214
v 0.302125 -0.071445 0.219894
v 0.341596 -0.054507 0.106979
v 0.354681 0.000006 0.000006
v 0.302125 -0.135898 0.187049
v 0.302125 -0.187049 0.135898
v 0.341596 -0.106967 0.054507
v 0.354681 0.000006 0.000006
v 0.302125 -0.219894 0.071445
v 0.302125 -0.231214 -0.000006
v 0.341596 -0.118575 -0.018781
v 0.354681 0.000006 0.000006
v 0.302125 -0.219894 -0.071445
v 0.302125 -0.187049 -0.135898
v 0.341596 -0.084890 -0.084890
v 0.354681 0.000006 0.000006
v 0.302125 -0.135898 -0.187049
v 0.302125 -0.071445 -0.219894
v 0.341596 -0.018781 -0.118575
v 0.354681 0.000006 0.000006
v 0.302125 0.000006 -0.231214
v 0.302125 0.071445 -0.219894
v 0.341596 0.054507 -0.106967
v 0.354681 0.000006 0.000006
v 0.302125 0.135898 -0.187049
v 0.302125 0.187049 -0.135898
v 0.341596 0.106979 -0.054507
v 0.354681 0.000006 0.000006
v 0.302125 0.219894 -0.071445
v 0.302125 0.231214 0.000006
v 0.341596 0.118575 0.018781
v 0.354681 0.000006 0.000006
v 0.231214 -0.098335 -0.302665
v 0.231214 -0.187049 -0.257456
v 0.231214 -0.257456 -0.187049
v 0.231214 -0.302653 -0.098335
v 0.231214 -0.318235 -0.000006
v 0.231214 -0.302665 0.098335
v 0.231214 -0.257456 0.187049
v 0.231214 -0.187049 0.257456
v 0.231214 -0.098335 0.302665
v 0.231214 -0.000006 0.318235
v 0.231214 0.098335 0.302665
v 0.231214 0.187049 0.257456
v 0.231214 0.257456 0.187049
v 0.231214 0.302665 0.098335
v 0.231214 0.318235 0.000006
v 0.121552 0.355797 0.115610
v 0.121552 0.374104 0.000006
v 0.121552 0.302665 0.219894
v 0.121552 0.219894 0.302665
v 0.121552 0.115610 0.355797
v 0.121552 -0.000006 0.374104
v 0.121552 -0.115610 0.355797
v 0.121552 -0.219894 0.302653
v 0.121552 -0.302665 0.219894
v 0.121552 -0.355797 0.115610
v 0.121552 -0.374104 -0.000006
v 0.121552 -0.355797 -0.115610
v 0.121552 -0.302653 -0.219894
v 0.121552 -0.219894 -0.302665
v 0.121552 -0.115610 -0.355797
v 0.121552 0.000006 -0.374104
v 0.231214 0.000006 -0.318235
v 0.231214 0.098335 -0.302653
v 0.231214 0.187049 -0.257456
v 0.231214 0.257456 -0.187049
v 0.231214 0.302665 -0.098335
v 0.231214 0.318235 0.000006
v 0.121552 0.115610 -0.355797
v 0.121552 0.219894 -0.302653
v 0.121552 0.302665 -0.219894
v 0.121552 0.355797 -0.115610
v 0.121552 0.374104 0.000006
v -0.000006 0.231214 -0.318235
v -0.000006 0.121552 -0.374104
v -0.000006 0.000006 -0.393360
v -0.000006 -0.121552 -0.374104
v -0.000006 -0.231214 -0.318235
v -0.000006 -0.318235 -0.231214
v -0.000006 -0.374104 -0.121552
v -0.000006 -0.393360 -0.000006
v -0.000006 -0.374104 0.121552
v -0.000006 -0.318235 0.231214
v -0.000006 -0.231214 0.318235
v -0.000006 -0.121552 0.374104
v -0.000006 -0.000006 0.393360
v -0.000006 0.121552 0.374104
v -0.000006 0.231214 0.318235
v -0.000006 0.318235 0.231214
v -0.000006 0.374104 0.121552
v -0.000006 0.393360 0.000006
v -0.121552 0.355797 0.115610
v -0.121552 0.374104 0.000006
v -0.121552 0.302665 0.219894
v -0.121552 0.219894 0.302665
v -0.121552 0.115610 0.355797
v -0.121552 -0.000006 0.374104
v -0.121552 -0.115610 0.355797
v -0.121552 -0.219894 0.302653
v -0.121552 -0.302665 0.219894
v -0.121552 -0.355797 0.115610
v -0.121552 -0.374104 -0.000006
v -0.121552 -0.355797 -0.115610
v -0.121552 -0.302653 -0.219894
v -0.121552 -0.219894 -0.302665
v -0.121552 -0.115610 -0.355797
v -0.121552 0.000006 -0.374104
v -0.121552 0.115610 -0.355797
v -0.121552 0.219894 -0.302653
v -0.121552 0.302665 -0.219894
v -0.000006 0.318235 -0.231214
v -0.000006 0.374104 -0.121552
v -0.000006 0.393360 0.000006
v -0.121552 0.355797 -0.115610
v -0.121552 0.374104 0.000006
v -0.231214 0.098335 -0.302653
v -0.231214 0.000006 -0.318235
v -0.231214 -0.098335 -0.302665
v -0.231214 -0.187049 -0.257456
v -0.231214 -0.257456 -0.187049
v -0.231214 -0.302653 -0.098335
v -0.231214 -0.318235 -0.000006
v -0.231214 -0.302665 0.098335
v -0.231214 -0.257456 0.187049
v -0.231214 -0.187049 0.257456
v -0.231214 -0.098335 0.302665
v -0.231214 -0.000006 0.318235
v -0.231214 0.098335 0.302665
v -0.231214 0.187049 0.257456
v -0.231214 0.257456 0.187049
v -0.231214 0.302665 0.098335
v -0.231214 0.318235 0.000006
v -0.302125 0.219894 0.071445
v -0.302125 0.231214 0.000006
v -0.302125 0.187049 0.135898
v -0.302125 0.135898 0.187049
v -0.302125 0.071445 0.219894
v -0.302125 -0.000006 0.231214
v -0.302125 -0.071445 0.219894
v -0.302125 -0.135898 0.187049
v -0.302125 -0.187049 0.135898
v -0.302125 -0.219894 0.071445
v -0.302125 -0.231214 -0.000006
v -0.302125 -0.219894 -0.071445
v -0.302125 -0.187049 -0.135898
v -0.302125 -0.135898 -0.187049
v -0.302125 -0.071445 -0.219894
v -0.302125 0.000006 -0.231214
v -0.302125 0.071445 -0.219894
v -0.302125 0.135898 -0.187049
v -0.231214 0.187049 -0.257456
v -0.231214 0.257456 -0.187049
v -0.231214 0.302665 -0.098335
v -0.231214 0.318235 0.000006
v -0.302125 0.187049 -0.135898
v -0.302125 0.219894 -0.071445
v -0.302125 0.231214 0.000006
v -0.341596 0.054507 -0.106967
v -0.341596 -0.018781 -0.118575
v -0.341596 -0.084890 -0.084890
v -0.341596 -0.118575 -0.018781
v -0.341596 -0.106967 0.054507
v -0.341596 -0.054507 0.106967
v -0.341596 0.018781 0.118575
v -0.341596 0.084890 0.084890
v -0.341596 0.118575 0.018781
v -0.354681 0.000006 -0.000006
v -0.354681 0.000006 -0.000006
v -0.354681 0.000006 -0.000006
v -0.354681 0.000006 -0.000006
v -0.354681 0.000006 -0.000006
v -0.354681 0.000006 -0.000006
v -0.354681 0.000006 -0.000006
v -0.354681 0.000006 -0.000006
v -0.341596 0.106979 -0.054507
v -0.341596 0.118575 0.018781
v -0.354681 0.000006 -0.000006
v -0.354681 0.000006 -0.000006
vt 0.964292 0.930387
vt 0.966176 0.930387
vt 0.965234 0.978419
vt 0.966176 0.883297
vt 0.965234 0.883297
vt 0.964292 0.883297
vt 0.967117 0.883297
vt 0.968059 0.883297
vt 0.969001 0.930387
vt 0.967117 0.978419
vt 0.969001 0.883297
vt 0.969943 0.883297
vt 0.970885 0.930387
vt 0.969001 0.978419
vt 0.970885 0.883297
vt 0.971827 0.883297
vt 0.972768 0.930387
vt 0.970885 0.978419
vt 0.972768 0.883297
vt 0.973710 0.883297
vt 0.974652 0.930387
vt 0.972768 0.978419
vt 0.974652 0.883297
vt 0.976536 0.883297
vt 0.976536 0.930387
vt 0.974652 0.978419
vt 0.977477 0.883297
vt 0.978419 0.883297
vt 0.978419 0.930387
vt 0.977477 0.978419
vt 0.979361 0.883297
vt 0.980303 0.883297
vt 0.980303 0.930387
vt 0.979361 0.978419
vt 0.981245 0.883297
vt 0.982186 0.883297
vt 0.982186 0.930387
vt 0.981245 0.978419
vt 0.983128 0.883297
vt 0.984070 0.883297
vt 0.984070 0.930387
vt 0.983128 0.978419
vt 0.978419 0.835265
vt 0.977477 0.835265
vt 0.976536 0.835265
vt 0.974652 0.835265
vt 0.973710 0.835265
vt 0.972768 0.835265
vt 0.971827 0.835265
vt 0.970885 0.835265
vt 0.969943 0.835265
vt 0.969001 0.835265
vt 0.968059 0.835265
vt 0.967117 0.835265
vt 0.966176 0.835265
vt 0.965234 0.835265
vt 0.964292 0.835265
vt 0.965234 0.788174
vt 0.964292 0.788174
vt 0.966176 0.788174
vt 0.967117 0.788174
vt 0.968059 0.788174
vt 0.969001 0.788174
vt 0.969943 0.788174
vt 0.970885 0.788174
vt 0.971827 0.788174
vt 0.972768 0.788174
vt 0.973710 0.788174
vt 0.974652 0.788174
vt 0.976536 0.788174
vt 0.977477 0.788174
vt 0.978419 0.788174
vt 0.979361 0.788174
vt 0.979361 0.835265
vt 0.980303 0.835265
vt 0.981245 0.835265
vt 0.982186 0.835265
vt 0.983128 0.835265
vt 0.984070 0.835265
vt 0.980303 0.788174
vt 0.981245 0.788174
vt 0.982186 0.788174
vt 0.983128 0.788174
vt 0.984070 0.788174
vt 0.981245 0.740142
vt 0.980303 0.740142
vt 0.979361 0.740142
vt 0.978419 0.740142
vt 0.977477 0.740142
vt 0.976536 0.740142
vt 0.974652 0.740142
vt 0.973710 0.740142
vt 0.972768 0.740142
vt 0.971827 0.740142
vt 0.970885 0.740142
vt 0.969943 0.740142
vt 0.969001 0.740142
vt 0.968059 0.740142
vt 0.967117 0.740142
vt 0.966176 0.740142
vt 0.965234 0.740142
vt 0.964292 0.740142
vt 0.965234 0.693052
vt 0.964292 0.693052
vt 0.966176 0.693052
vt 0.967117 0.693052
vt 0.968059 0.693052
vt 0.969001 0.693052
vt 0.969943 0.693052
vt 0.970885 0.693052
vt 0.971827 0.693052
vt 0.972768 0.693052
vt 0.973710 0.693052
vt 0.974652 0.693052
vt 0.976536 0.693052
vt 0.977477 0.693052
vt 0.978419 0.693052
vt 0.979361 0.693052
vt 0.980303 0.693052
vt 0.981245 0.693052
vt 0.982186 0.693052
vt 0.982186 0.740142
vt 0.983128 0.740142
vt 0.984070 0.740142
vt 0.983128 0.693052
vt 0.984070 0.693052
vt 0.980303 0.645020
vt 0.979361 0.645020
vt 0.978419 0.645020
vt 0.977477 0.645020
vt 0.976536 0.645020
vt 0.974652 0.645020
vt 0.973710 0.645020
vt 0.972768 0.645020
vt 0.971827 0.645020
vt 0.970885 0.645020
vt 0.969943 0.645020
vt 0.969001 0.645020
vt 0.968059 0.645020
vt 0.967117 0.645020
vt 0.966176 0.645020
vt 0.965234 0.645020
vt 0.964292 0.645020
vt 0.965234 0.597929
vt 0.964292 0.597929
vt 0.966176 0.597929
vt 0.967117 0.597929
vt 0.968059 0.597929
vt 0.969001 0.597929
vt 0.969943 0.597929
vt 0.970885 0.597929
vt 0.971827 0.597929
vt 0.972768 0.597929
vt 0.973710 0.597929
vt 0.974652 0.597929
vt 0.976536 0.597929
vt 0.977477 0.597929
vt 0.978419 0.597929
vt 0.979361 0.597929
vt 0.980303 0.597929
vt 0.981245 0.597929
vt 0.981245 0.645020
vt 0.982186 0.645020
vt 0.983128 0.645020
vt 0.984070 0.645020
vt 0.982186 0.597929
vt 0.983128 0.597929
vt 0.984070 0.597929
vt 0.980303 0.549897
vt 0.978419 0.549897
vt 0.976536 0.549897
vt 0.974652 0.549897
vt 0.972768 0.549897
vt 0.970885 0.549897
vt 0.969001 0.549897
vt 0.966176 0.549897
vt 0.964292 0.549897
vt 0.965234 0.502807
vt 0.967117 0.502807
vt 0.969001 0.502807
vt 0.970885 0.502807
vt 0.972768 0.502807
vt 0.974652 0.502807
vt 0.977477 0.502807
vt 0.979361 0.502807
vt 0.982186 0.549897
vt 0.984070 0.549897
vt 0.981245 0.502807
vt 0.983128 0.502807
vn 0.9686 0.2314 0.0908
vn 0.9686 0.1686 0.1826
vn 1.0000 0.0039 -0.0000
vn 0.8666 0.4040 0.2928
vn 0.8667 0.4745 0.1541
vn 0.8667 0.4980 -0.0293
vn 0.8667 0.2941 0.4030
vn 0.8667 0.1529 0.4749
vn 0.9686 0.0353 0.2460
vn 0.8666 -0.0039 0.4989
vn 0.8666 -0.1529 0.4749
vn 0.9686 -0.1059 0.2249
vn 0.8666 -0.2941 0.4030
vn 0.8667 -0.4039 0.2928
vn 0.9686 -0.2078 0.1363
vn 0.8666 -0.4745 0.1541
vn 0.8667 -0.4980 0.0294
vn 0.9686 -0.2314 -0.0908
vn 0.8667 -0.4745 -0.1541
vn 0.8666 -0.4040 -0.2928
vn 0.9686 -0.1686 -0.1826
vn 0.8667 -0.2941 -0.4030
vn 0.8667 -0.1530 -0.4749
vn 0.9686 -0.0353 -0.2460
vn 0.8667 0.0039 -0.4989
vn 0.8667 0.1529 -0.4749
vn 0.9686 0.1059 -0.2249
vn 0.8666 0.2941 -0.4030
vn 0.8667 0.4039 -0.2929
vn 0.9686 0.2078 -0.1363
vn 0.8666 0.4745 -0.1541
vn 0.8667 0.4980 -0.0294
vn 0.6157 -0.2392 -0.7508
vn 0.6157 -0.4588 -0.6406
vn 0.6157 -0.6392 -0.4608
vn 0.6157 -0.7490 -0.2448
vn 0.6156 -0.7881 -0.0000
vn 0.6157 -0.7490 0.2448
vn 0.6157 -0.6392 0.4608
vn 0.6157 -0.4588 0.6406
vn 0.6157 -0.2392 0.7508
vn 0.6157 -0.0039 0.7880
vn 0.6157 0.2392 0.7508
vn 0.6157 0.4588 0.6406
vn 0.6157 0.6392 0.4608
vn 0.6157 0.7490 0.2448
vn 0.6156 0.7881 0.0000
vn 0.3019 0.9059 0.2970
vn 0.3020 0.9529 0.0272
vn 0.3020 0.7725 0.5586
vn 0.3020 0.5608 0.7709
vn 0.3020 0.2941 0.9068
vn 0.3020 -0.0039 0.9533
vn 0.3020 -0.2941 0.9068
vn 0.3020 -0.5608 0.7709
vn 0.3020 -0.7725 0.5586
vn 0.3020 -0.9059 0.2970
vn 0.3020 -0.9529 -0.0272
vn 0.3020 -0.9059 -0.2970
vn 0.3020 -0.7725 -0.5586
vn 0.3020 -0.5608 -0.7709
vn 0.3020 -0.2941 -0.9068
vn 0.3020 0.0039 -0.9533
vn 0.6157 0.0039 -0.7880
vn 0.6157 0.2392 -0.7508
vn 0.6157 0.4588 -0.6406
vn 0.6157 0.6392 -0.4608
vn 0.6157 0.7490 -0.2448
vn 0.3019 0.2941 -0.9068
vn 0.3020 0.5608 -0.7709
vn 0.3020 0.7725 -0.5586
vn 0.3020 0.9059 -0.2970
vn -0.0039 0.5843 -0.8115
vn -0.0039 0.3098 -0.9508
vn -0.0039 0.0039 -1.0000
vn -0.0039 -0.3098 -0.9508
vn -0.0039 -0.5843 -0.8115
vn -0.0039 -0.8118 -0.5840
vn -0.0039 -0.9529 -0.3031
vn -0.0039 -1.0000 -0.0000
vn -0.0039 -0.9529 0.3032
vn -0.0039 -0.8118 0.5840
vn -0.0039 -0.5843 0.8115
vn -0.0039 -0.3098 0.9508
vn -0.0039 -0.0039 1.0000
vn -0.0039 0.3098 0.9508
vn -0.0039 0.5843 0.8115
vn -0.0039 0.8118 0.5840
vn -0.0039 0.9529 0.3032
vn -0.0039 1.0000 -0.0003
vn -0.3020 0.9059 0.2970
vn -0.3020 0.9529 0.0272
vn -0.3020 0.7725 0.5586
vn -0.3020 0.5608 0.7709
vn -0.3020 0.2941 0.9068
vn -0.3020 -0.0039 0.9533
vn -0.3020 -0.2941 0.9068
vn -0.3020 -0.5608 0.7709
vn -0.3020 -0.7725 0.5586
vn -0.3020 -0.9059 0.2970
vn -0.3020 -0.9529 -0.0271
vn -0.3020 -0.9059 -0.2970
vn -0.3020 -0.7725 -0.5586
vn -0.3020 -0.5608 -0.7709
vn -0.3020 -0.2941 -0.9068
vn -0.3020 0.0039 -0.9533
vn -0.3020 0.2941 -0.9068
vn -0.3020 0.5608 -0.7709
vn -0.3019 0.7725 -0.5586
vn -0.0039 0.8117 -0.5840
vn -0.0039 0.9529 -0.3032
vn -0.0039 1.0000 -0.0004
vn -0.3019 0.9059 -0.2970
vn -0.6157 0.2392 -0.7508
vn -0.6157 0.0039 -0.7880
vn -0.6157 -0.2392 -0.7508
vn -0.6157 -0.4588 -0.6406
vn -0.6157 -0.6392 -0.4608
vn -0.6157 -0.7490 -0.2448
vn -0.6156 -0.7881 -0.0000
vn -0.6157 -0.7490 0.2448
vn -0.6157 -0.6392 0.4608
vn -0.6157 -0.4588 0.6406
vn -0.6157 -0.2392 0.7508
vn -0.6157 -0.0039 0.7880
vn -0.6157 0.2393 0.7508
vn -0.6157 0.4588 0.6406
vn -0.6157 0.6392 0.4608
vn -0.6157 0.7490 0.2448
vn -0.6156 0.7881 0.0000
vn -0.8667 0.4745 0.1541
vn -0.8667 0.4980 -0.0293
vn -0.8666 0.4040 0.2928
vn -0.8666 0.2941 0.4030
vn -0.8667 0.1529 0.4749
vn -0.8666 -0.0039 0.4989
vn -0.8667 -0.1529 0.4749
vn -0.8667 -0.2941 0.4030
vn -0.8666 -0.4039 0.2929
vn -0.8667 -0.4745 0.1541
vn -0.8667 -0.4980 0.0293
vn -0.8667 -0.4745 -0.1541
vn -0.8666 -0.4040 -0.2928
vn -0.8667 -0.2941 -0.4030
vn -0.8667 -0.1529 -0.4749
vn -0.8666 0.0039 -0.4989
vn -0.8666 0.1529 -0.4749
vn -0.8667 0.2941 -0.4030
vn -0.6157 0.4588 -0.6407
vn -0.6157 0.6392 -0.4608
vn -0.6157 0.7490 -0.2448
vn -0.8667 0.4039 -0.2928
vn -0.8666 0.4746 -0.1541
vn -0.8667 0.4980 -0.0294
vn -0.9686 0.1059 -0.2249
vn -0.9686 -0.0353 -0.2460
vn -0.9686 -0.1686 -0.1826
vn -0.9686 -0.2314 -0.0908
vn -0.9686 -0.2078 0.1363
vn -0.9686 -0.1059 0.2249
vn -0.9686 0.0353 0.2460
vn -0.9686 0.1686 0.1826
vn -0.9686 0.2314 0.0908
vn -1.0000 0.0039 -0.0003
vn -1.0000 0.0039 -0.0004
vn -0.9686 0.2078 -0.1363
usemtl ClassicSonicBall
s 1
f 1/1/1 2/2/2 3/3/3
f 2/2/2 1/1/1 4/4/4
f 5/5/5 4/4/4 1/1/1
f 6/6/6 5/5/5 1/1/1
f 4/4/4 7/7/7 2/2/2
f 7/7/7 8/8/8 2/2/2
f 9/9/9 2/2/2 8/8/8
f 2/2/2 9/9/9 10/10/3
f 8/8/8 11/11/10 9/9/9
f 11/11/10 12/12/11 9/9/9
f 13/13/12 9/9/9 12/12/11
f 9/9/9 13/13/12 14/14/3
f 12/12/11 15/15/13 13/13/12
f 15/15/13 16/16/14 13/13/12
f 17/17/15 13/13/12 16/16/14
f 13/13/12 17/17/15 18/18/3
f 16/16/14 19/19/16 17/17/15
f 19/19/16 20/20/17 17/17/15
f 21/21/18 17/17/15 20/20/17
f 17/17/15 21/21/18 22/22/3
f 20/20/17 23/23/19 21/21/18
f 23/23/19 24/24/20 21/21/18
f 25/25/21 21/21/18 24/24/20
f 21/21/18 25/25/21 26/26/3
f 24/24/20 27/27/22 25/25/21
f 27/27/22 28/28/23 25/25/21
f 29/29/24 25/25/21 28/28/23
f 25/25/21 29/29/24 30/30/3
f 28/28/23 31/31/25 29/29/24
f 31/31/25 32/32/26 29/29/24
f 33/33/27 29/29/24 32/32/26
f 29/29/24 33/33/27 34/34/3
f 32/32/26 35/35/28 33/33/27
f 35/35/28 36/36/29 33/33/27
f 37/37/30 33/33/27 36/36/29
f 33/33/27 37/37/30 38/38/3
f 36/36/29 39/39/31 37/37/30
f 39/39/31 40/40/32 37/37/30
f 41/41/1 37/37/30 40/40/32
f 37/37/30 41/41/1 42/42/3
f 28/28/23 27/27/22 43/43/33
f 44/44/34 43/43/33 27/27/22
f 27/27/22 24/24/20 44/44/34
f 45/45/35 44/44/34 24/24/20
f 24/24/20 23/23/19 45/45/35
f 46/46/36 45/45/35 23/23/19
f 23/23/19 20/20/17 46/46/36
f 47/47/37 46/46/36 20/20/17
f 20/20/17 19/19/16 47/47/37
f 48/48/38 47/47/37 19/19/16
f 19/19/16 16/16/14 48/48/38
f 49/49/39 48/48/38 16/16/14
f 16/16/14 15/15/13 49/49/39
f 50/50/40 49/49/39 15/15/13
f 15/15/13 12/12/11 50/50/40
f 51/51/41 50/50/40 12/12/11
f 12/12/11 11/11/10 51/51/41
f 52/52/42 51/51/41 11/11/10
f 11/11/10 8/8/8 52/52/42
f 53/53/43 52/52/42 8/8/8
f 8/8/8 7/7/7 53/53/43
f 54/54/44 53/53/43 7/7/7
f 7/7/7 4/4/4 54/54/44
f 55/55/45 54/54/44 4/4/4
f 4/4/4 5/5/5 55/55/45
f 56/56/46 55/55/45 5/5/5
f 5/5/5 6/6/6 56/56/46
f 57/57/47 56/56/46 6/6/6
f 56/56/46 57/57/47 58/58/48
f 59/59/49 58/58/48 57/57/47
f 55/55/45 56/56/46 60/60/50
f 58/58/48 60/60/50 56/56/46
f 54/54/44 55/55/45 61/61/51
f 60/60/50 61/61/51 55/55/45
f 53/53/43 54/54/44 62/62/52
f 61/61/51 62/62/52 54/54/44
f 52/52/42 53/53/43 63/63/53
f 62/62/52 63/63/53 53/53/43
f 63/63/53 64/64/54 52/52/42
f 51/51/41 52/52/42 64/64/54
f 64/64/54 65/65/55 51/51/41
f 50/50/40 51/51/41 65/65/55
f 65/65/55 66/66/56 50/50/40
f 49/49/39 50/50/40 66/66/56
f 66/66/56 67/67/57 49/49/39
f 48/48/38 49/49/39 67/67/57
f 67/67/57 68/68/58 48/48/38
f 47/47/37 48/48/38 68/68/58
f 68/68/58 69/69/59 47/47/37
f 46/46/36 47/47/37 69/69/59
f 69/69/59 70/70/60 46/46/36
f 45/45/35 46/46/36 70/70/60
f 70/70/60 71/71/61 45/45/35
f 44/44/34 45/45/35 71/71/61
f 71/71/61 72/72/62 44/44/34
f 43/43/33 44/44/34 72/72/62
f 72/72/62 73/73/63 43/43/33
f 74/74/64 43/43/33 73/73/63
f 43/43/33 74/74/64 28/28/23
f 31/31/25 28/28/23 74/74/64
f 74/74/64 75/75/65 31/31/25
f 32/32/26 31/31/25 75/75/65
f 75/75/65 76/76/66 32/32/26
f 35/35/28 32/32/26 76/76/66
f 76/76/66 77/77/67 35/35/28
f 36/36/29 35/35/28 77/77/67
f 77/77/67 78/78/68 36/36/29
f 39/39/31 36/36/29 78/78/68
f 78/78/68 79/79/47 39/39/31
f 40/40/32 39/39/31 79/79/47
f 75/75/65 74/74/64 80/80/69
f 73/73/63 80/80/69 74/74/64
f 76/76/66 75/75/65 81/81/70
f 80/80/69 81/81/70 75/75/65
f 77/77/67 76/76/66 82/82/71
f 81/81/70 82/82/71 76/76/66
f 78/78/68 77/77/67 83/83/72
f 82/82/71 83/83/72 77/77/67
f 79/79/47 78/78/68 84/84/49
f 83/83/72 84/84/49 78/78/68
f 81/81/70 80/80/69 85/85/73
f 86/86/74 85/85/73 80/80/69
f 80/80/69 73/73/63 86/86/74
f 87/87/75 86/86/74 73/73/63
f 73/73/63 72/72/62 87/87/75
f 88/88/76 87/87/75 72/72/62
f 72/72/62 71/71/61 88/88/76
f 89/89/77 88/88/76 71/71/61
f 71/71/61 70/70/60 89/89/77
f 90/90/78 89/89/77 70/70/60
f 70/70/60 69/69/59 90/90/78
f 91/91/79 90/90/78 69/69/59
f 69/69/59 68/68/58 91/91/79
f 92/92/80 91/91/79 68/68/58
f 68/68/58 67/67/57 92/92/80
f 93/93/81 92/92/80 67/67/57
f 67/67/57 66/66/56 93/93/81
f 94/94/82 93/93/81 66/66/56
f 66/66/56 65/65/55 94/94/82
f 95/95/83 94/94/82 65/65/55
f 65/65/55 64/64/54 95/95/83
f 96/96/84 95/95/83 64/64/54
f 64/64/54 63/63/53 96/96/84
f 97/97/85 96/96/84 63/63/53
f 63/63/53 62/62/52 97/97/85
f 98/98/86 97/97/85 62/62/52
f 62/62/52 61/61/51 98/98/86
f 99/99/87 98/98/86 61/61/51
f 61/61/51 60/60/50 99/99/87
f 100/100/88 99/99/87 60/60/50
f 60/60/50 58/58/48 100/100/88
f 101/101/89 100/100/88 58/58/48
f 58/58/48 59/59/49 101/101/89
f 102/102/90 101/101/89 59/59/49
f 101/101/89 102/102/90 103/103/91
f 104/104/92 103/103/91 102/102/90
f 100/100/88 101/101/89 105/105/93
f 103/103/91 105/105/93 101/101/89
f 99/99/87 100/100/88 106/106/94
f 105/105/93 106/106/94 100/100/88
f 98/98/86 99/99/87 107/107/95
f 106/106/94 107/107/95 99/99/87
f 97/97/85 98/98/86 108/108/96
f 107/107/95 108/108/96 98/98/86
f 108/108/96 109/109/97 97/97/85
f 96/96/84 97/97/85 109/109/97
f 109/109/97 110/110/98 96/96/84
f 95/95/83 96/96/84 110/110/98
f 110/110/98 111/111/99 95/95/83
f 94/94/82 95/95/83 111/111/99
f 111/111/99 112/112/100 94/94/82
f 93/93/81 94/94/82 112/112/100
f 112/112/100 113/113/101 93/93/81
f 92/92/80 93/93/81 113/113/101
f 113/113/101 114/114/102 92/92/80
f 91/91/79 92/92/80 114/114/102
f 114/114/102 115/115/103 91/91/79
f 90/90/78 91/91/79 115/115/103
f 115/115/103 116/116/104 90/90/78
f 89/89/77 90/90/78 116/116/104
f 116/116/104 117/117/105 89/89/77
f 88/88/76 89/89/77 117/117/105
f 117/117/105 118/118/106 88/88/76
f 87/87/75 88/88/76 118/118/106
f 118/118/106 119/119/107 87/87/75
f 86/86/74 87/87/75 119/119/107
f 119/119/107 120/120/108 86/86/74
f 85/85/73 86/86/74 120/120/108
f 120/120/108 121/121/109 85/85/73
f 122/122/110 85/85/73 121/121/109
f 85/85/73 122/122/110 81/81/70
f 82/82/71 81/81/70 122/122/110
f 122/122/110 123/123/111 82/82/71
f 83/83/72 82/82/71 123/123/111
f 123/123/111 124/124/112 83/83/72
f 84/84/49 83/83/72 124/124/112
f 123/123/111 122/122/110 125/125/113
f 121/121/109 125/125/113 122/122/110
f 124/124/112 123/123/111 126/126/92
f 125/125/113 126/126/92 123/123/111
f 119/119/107 118/118/106 127/127/114
f 128/128/115 127/127/114 118/118/106
f 118/118/106 117/117/105 128/128/115
f 129/129/116 128/128/115 117/117/105
f 117/117/105 116/116/104 129/129/116
f 130/130/117 129/129/116 116/116/104
f 116/116/104 115/115/103 130/130/117
f 131/131/118 130/130/117 115/115/103
f 115/115/103 114/114/102 131/131/118
f 132/132/119 131/131/118 114/114/102
f 114/114/102 113/113/101 132/132/119
f 133/133/120 132/132/119 113/113/101
f 113/113/101 112/112/100 133/133/120
f 134/134/121 133/133/120 112/112/100
f 112/112/100 111/111/99 134/134/121
f 135/135/122 134/134/121 111/111/99
f 111/111/99 110/110/98 135/135/122
f 136/136/123 135/135/122 110/110/98
f 110/110/98 109/109/97 136/136/123
f 137/137/124 136/136/123 109/109/97
f 109/109/97 108/108/96 137/137/124
f 138/138/125 137/137/124 108/108/96
f 108/108/96 107/107/95 138/138/125
f 139/139/126 138/138/125 107/107/95
f 107/107/95 106/106/94 139/139/126
f 140/140/127 139/139/126 106/106/94
f 106/106/94 105/105/93 140/140/127
f 141/141/128 140/140/127 105/105/93
f 105/105/93 103/103/91 141/141/128
f 142/142/129 141/141/128 103/103/91
f 103/103/91 104/104/92 142/142/129
f 143/143/130 142/142/129 104/104/92
f 142/142/129 143/143/130 144/144/131
f 145/145/132 144/144/131 143/143/130
f 141/141/128 142/142/129 146/146/133
f 144/144/131 146/146/133 142/142/129
f 140/140/127 141/141/128 147/147/134
f 146/146/133 147/147/134 141/141/128
f 139/139/126 140/140/127 148/148/135
f 147/147/134 148/148/135 140/140/127
f 138/138/125 139/139/126 149/149/136
f 148/148/135 149/149/136 139/139/126
f 149/149/136 150/150/137 138/138/125
f 137/137/124 138/138/125 150/150/137
f 150/150/137 151/151/138 137/137/124
f 136/136/123 137/137/124 151/151/138
f 151/151/138 152/152/139 136/136/123
f 135/135/122 136/136/123 152/152/139
f 152/152/139 153/153/140 135/135/122
f 134/134/121 135/135/122 153/153/140
f 153/153/140 154/154/141 134/134/121
f 133/133/120 134/134/121 154/154/141
f 154/154/141 155/155/142 133/133/120
f 132/132/119 133/133/120 155/155/142
f 155/155/142 156/156/143 132/132/119
f 131/131/118 132/132/119 156/156/143
f 156/156/143 157/157/144 131/131/118
f 130/130/117 131/131/118 157/157/144
f 157/157/144 158/158/145 130/130/117
f 129/129/116 130/130/117 158/158/145
f 158/158/145 159/159/146 129/129/116
f 128/128/115 129/129/116 159/159/146
f 159/159/146 160/160/147 128/128/115
f 127/127/114 128/128/115 160/160/147
f 160/160/147 161/161/148 127/127/114
f 162/162/149 127/127/114 161/161/148
f 127/127/114 162/162/149 119/119/107
f 120/120/108 119/119/107 162/162/149
f 162/162/149 163/163/150 120/120/108
f 121/121/109 120/120/108 163/163/150
f 163/163/150 164/164/151 121/121/109
f 125/125/113 121/121/109 164/164/151
f 164/164/151 165/165/130 125/125/113
f 126/126/92 125/125/113 165/165/130
f 163/163/150 162/162/149 166/166/152
f 161/161/148 166/166/152 162/162/149
f 164/164/151 163/163/150 167/167/153
f 166/166/152 167/167/153 163/163/150
f 165/165/130 164/164/151 168/168/154
f 167/167/153 168/168/154 164/164/151
f 169/169/155 161/161/148 160/160/147
f 160/160/147 159/159/146 169/169/155
f 170/170/156 169/169/155 159/159/146
f 170/170/156 159/159/146 158/158/145
f 158/158/145 157/157/144 170/170/156
f 171/171/157 170/170/156 157/157/144
f 171/171/157 157/157/144 156/156/143
f 156/156/143 155/155/142 171/171/157
f 172/172/158 171/171/157 155/155/142
f 172/172/158 155/155/142 154/154/141
f 154/154/141 153/153/140 172/172/158
f 173/173/159 172/172/158 153/153/140
f 173/173/159 153/153/140 152/152/139
f 152/152/139 151/151/138 173/173/159
f 174/174/160 173/173/159 151/151/138
f 174/174/160 151/151/138 150/150/137
f 150/150/137 149/149/136 174/174/160
f 175/175/161 174/174/160 149/149/136
f 175/175/161 149/149/136 148/148/135
f 148/148/135 147/147/134 175/175/161
f 176/176/162 175/175/161 147/147/134
f 176/176/162 147/147/134 146/146/133
f 146/146/133 144/144/131 176/176/162
f 177/177/163 176/176/162 144/144/131
f 177/177/163 144/144/131 145/145/132
f 176/176/162 177/177/163 178/178/164
f 175/175/161 176/176/162 179/179/165
f 174/174/160 175/175/161 180/180/164
f 173/173/159 174/174/160 181/181/165
f 172/172/158 173/173/159 182/182/164
f 171/171/157 172/172/158 183/183/164
f 170/170/156 171/171/157 184/184/164
f 169/169/155 170/170/156 185/185/164
f 169/169/155 186/186/166 161/161/148
f 166/166/152 161/161/148 186/186/166
f 186/186/166 167/167/153 166/166/152
f 186/186/166 187/187/163 167/167/153
f 168/168/154 167/167/153 187/187/163
f 186/186/166 169/169/155 188/188/164
f 187/187/163 186/186/166 189/189/165
